<svg xmlns="http://www.w3.org/2000/svg" viewBox="0 0 639.03 684.7"><defs><style>.cls-1{fill:#009fe3;}</style></defs><g id="Layer_2" data-name="Layer 2"><g id="Layer_1-2" data-name="Layer 1"><path class="cls-1" d="M12.51,25q8.67.4,17.31,1.22c2.87.28,5.75.6,8.62.95.62.07,5.52.74,2.23.27l4.55.66q17.39,2.66,34.45,7,16.8,4.31,33.14,10.21c5.44,2,10.82,4.07,16.17,6.27l-.17-.07,2.35,1c1.25.54,2.49,1.08,3.73,1.64q4.2,1.88,8.34,3.85a368.63,368.63,0,0,1,59.9,35.87l3.27,2.44c.58.43,3.65,2.79,1.52,1.14q3.63,2.82,7.19,5.72,6.91,5.64,13.54,11.63a351.37,351.37,0,0,1,24.91,24.82q5.83,6.42,11.33,13.12c1.73,2.1,3.42,4.23,5.1,6.37,1.44,1.83.19.24-.08-.11l1.24,1.62c1,1.36,2,2.72,3.05,4.09a222.46,222.46,0,0,1,20.38,32.64c.78,1.55,1.52,3.11,2.24,4.69.32.7.62,1.41.93,2.11.83,1.8-.62-1.67.08.19,1.21,3.21,2.45,6.39,3.47,9.67.95,3.07,1.77,6.17,2.43,9.31.31,1.48.56,2.95.82,4.44.09.49.31,2.45,0,0q.17,1.4.3,2.79a82.87,82.87,0,0,1,.3,9.58c0,1.52-.13,3-.26,4.55a9.78,9.78,0,0,1-.21,2.07q.35-2.42.12-1c-.08.46-.16.93-.25,1.39a59.91,59.91,0,0,1-1.86,7.35c-.39,1.21-.84,2.39-1.28,3.59-.89,2.4.18-.21.16-.34a10.83,10.83,0,0,1-1.21,2.59,65.7,65.7,0,0,1-3.78,6.64c-.7,1.07-1.43,2.1-2.17,3.14-1.31,1.85,0,.05.22-.26-.61.72-1.2,1.46-1.83,2.17a60.71,60.71,0,0,1-5.29,5.35c-.58.51-1.2,1-1.77,1.51-1.29,1.19,1.77-1.25.34-.23-1.13.8-2.24,1.61-3.41,2.35s-2.08,1.27-3.15,1.85c-.67.36-1.34.7-2,1-.4.19-2.19,1-.57.3s-1.85.65-2.3.79q-2.13.69-4.32,1.17c-.59.12-1.18.21-1.76.34-1.73.38,2.42-.19.65-.09-1.2.07-2.39.2-3.6.21-1.38,0-2.73-.08-4.11-.15s-.93.48.57.1a6.5,6.5,0,0,1-2.2-.42c-1.05-.23-6.5-1.11-6.85-2.1,0,0,2.86,1.37.71.27l-1.48-.73c-1.21-.63-2.4-1.32-3.55-2.05-.41-.27-2.62-1.39-2.69-1.87,0,0,2.37,2,.59.42-.41-.36-.84-.7-1.25-1.07a54,54,0,0,1-5.24-5.35c-.37-.43-.72-.87-1.08-1.3-.91-1.07-.77-.11.4.52-.79-.43-1.46-2-2-2.79a73.2,73.2,0,0,1-4-6.73q-.81-1.56-1.56-3.15c-.25-.54-.49-1.08-.73-1.61-1-2.1.21.25.21.53,0-.95-.95-2.43-1.28-3.34-.51-1.4-1-2.82-1.44-4.25a106.56,106.56,0,0,1-3.46-14.87c0-.22-.44-3.15-.16-1,.24,1.87,0-.08,0-.54-.14-1.17-.25-2.34-.34-3.51-.24-2.93-.35-5.87-.38-8.81s0-6,.22-9c.09-1.4.21-2.81.35-4.21.07-.7.16-1.39.24-2.09-.2,1.77-.14.95.07-.33a86.07,86.07,0,0,1,1.85-8.69c.36-1.34.76-2.66,1.19-4,.22-.65.45-1.3.68-2,.13-.36,1.44-3.56.26-.85a61.37,61.37,0,0,1,3.76-7.3c.71-1.17,1.48-2.3,2.25-3.44,1.3-1.91.22-.32-.08,0,.64-.78,1.28-1.55,1.95-2.3a54.19,54.19,0,0,1,5.33-5.17,13.29,13.29,0,0,1,1.42-1.16c-2.33,1.48-.87.67-.34.31,1.25-.86,2.5-1.71,3.8-2.49,2.09-1.26,4.26-2.32,6.45-3.38,2.7-1.3-1.83.66,0,0l1.72-.65c1.3-.48,2.61-.92,3.94-1.32q3.79-1.16,7.7-1.93c1.23-.25,2.47-.47,3.71-.67.44-.07,2.49-.39.69-.12s1.27-.14,1.66-.18a124.91,124.91,0,0,1,16.41-.57q4.14.12,8.26.46c1.29.1,2.58.22,3.86.36l1.93.21c.74.09,3.75.41.5,0,11.45,1.29,22.93,4.09,34,7.14a275.26,275.26,0,0,1,33.53,11.54c-2.72-1.14,1.76.78,2.28,1l3.79,1.72c2.84,1.32,5.64,2.68,8.43,4.1q7.86,4,15.42,8.56,7.75,4.67,15.13,9.94c1.12.8,2.24,1.61,3.34,2.43.62.46,3.67,2.84,1.58,1.18,2.42,1.92,4.83,3.86,7.19,5.87A201.49,201.49,0,0,1,453.42,241c1,1.2,1.95,2.42,2.93,3.63,1.17,1.44-1.16-1.56-.05-.07.4.55.82,1.09,1.23,1.64q2.76,3.72,5.31,7.57a173,173,0,0,1,8.93,15.07q2.06,3.87,3.91,7.85c.58,1.25,1.15,2.5,1.71,3.76l.82,1.89c-.86-2-.06-.1.31.84q3.25,8.15,5.71,16.58c1.62,5.6,3,11.28,4,17,.25,1.35.48,2.7.7,4.05.14.86.66,4.61.29,1.76.39,3,.71,6.1.94,9.16a164.29,164.29,0,0,1,.38,17.33q-.15,4.32-.52,8.63c-.14,1.52-.32,3-.47,4.55-.06.58-.24,2.47.05-.31-.09.84-.24,1.68-.37,2.51a144.35,144.35,0,0,1-3.67,16.84c-.79,2.77-1.65,5.52-2.61,8.24-.45,1.28-.92,2.55-1.4,3.82l-.75,1.9c-1.24,3.18,1.07-2.35-.32.78-5.31,11.88-12.21,22.87-19.54,33.59-15.31,22.37-32,44.43-38.38,71.31-3.26,13.59-3.94,27.95-.39,41.56,3.23,12.43,10.13,23.58,18.86,32.9,17.29,18.46,41.18,29.92,62.91,42.16l78.15,44,38.22,21.52c5.69,3.21,13.91,1.55,17.1-4.48s1.6-13.68-4.49-17.11l-81.57-45.93L510.9,592.76c-11.32-6.37-22.82-12.52-33.64-19.73-2.37-1.57-4.69-3.22-7-4.9-1.87-1.36-.2-.13.14.14-.52-.41-1-.82-1.55-1.24q-1.94-1.54-3.79-3.18c-2.2-2-4.32-4-6.33-6.13-.89-.94-1.75-1.91-2.59-2.89-.42-.5-.82-1-1.23-1.5-1.83-2.18,1.08,1.61-.39-.54a75.91,75.91,0,0,1-4.37-7c-.69-1.29-1.3-2.61-1.94-3.93.19.39.93,2.44.12.26-.38-1-.77-2.08-1.11-3.14A68.68,68.68,0,0,1,445.1,530c-.35-1.9.11,2,0,.08,0-.91-.17-1.82-.22-2.72-.11-1.83-.15-3.65-.11-5.48,0-1.46.11-2.93.22-4.39.06-.69.61-4.87.19-2.18a97,97,0,0,1,2.19-10.4c.83-3.09,1.81-6.15,2.92-9.15.52-1.43,1.07-2.84,1.65-4.24-.9,2.18.07-.13.3-.66.39-.86.79-1.72,1.19-2.58,5.94-12.55,13.87-24.05,21.78-35.42S491.13,430.2,497.59,418a152.33,152.33,0,0,0,13.76-36.43c5.85-25.12,5.45-51.3,0-76.46-11-50.91-43.34-93.62-85.88-122.75-20.89-14.31-44.19-25.17-68.24-33-23.32-7.58-48.44-13.16-73.06-12.9-24,.26-50.09,7-66.08,26.18-17.1,20.52-21.1,48.89-17.78,74.76,2.87,22.32,11.22,46.29,29.26,60.93,9.93,8.07,21.77,13,34.69,13.33a56.83,56.83,0,0,0,34.46-11.37A77.74,77.74,0,0,0,330,231.73c-2.2-28.84-16.28-54.92-33-77.95A373.06,373.06,0,0,0,187.74,53.63c-41.88-25.28-89-42.7-137.39-49.85C37.8,1.93,25.19.6,12.51,0,6-.29-.28,6,0,12.51A12.77,12.77,0,0,0,12.51,25Z"/></g></g></svg>